<svg width="58" height="33" viewBox="0 0 58 33" fill="none" xmlns="http://www.w3.org/2000/svg">
<rect width="58" height="33" rx="4" fill="white"/>
<path d="M10.0897 20V12.1797H12.7698C13.6543 12.1797 14.3275 12.3569 14.7894 12.7114C15.2513 13.0659 15.4822 13.5941 15.4822 14.2959C15.4822 14.654 15.3856 14.9762 15.1922 15.2627C14.9988 15.5492 14.716 15.7712 14.3436 15.9287C14.7661 16.0433 15.0919 16.2599 15.3211 16.5786C15.5539 16.8937 15.6702 17.2733 15.6702 17.7173C15.6702 18.4513 15.4339 19.0153 14.9613 19.4092C14.4922 19.8031 13.819 20 12.9417 20H10.0897ZM11.4486 16.4712V18.915H12.9578C13.3839 18.915 13.7169 18.8094 13.9569 18.5981C14.1968 18.3869 14.3167 18.0933 14.3167 17.7173C14.3167 16.9045 13.9014 16.4891 13.0706 16.4712H11.4486ZM11.4486 15.4722H12.7806C13.2031 15.4722 13.5325 15.3773 13.7689 15.1875C14.0088 14.9941 14.1287 14.722 14.1287 14.3711C14.1287 13.9844 14.0177 13.7051 13.7957 13.5332C13.5773 13.3613 13.2353 13.2754 12.7698 13.2754H11.4486V15.4722ZM23.9303 16.2939C23.9303 17.0602 23.7978 17.7334 23.5329 18.3135C23.2679 18.89 22.8883 19.334 22.3942 19.6455C21.9036 19.9535 21.3379 20.1074 20.6969 20.1074C20.0631 20.1074 19.4974 19.9535 18.9997 19.6455C18.5055 19.334 18.1224 18.8918 17.8503 18.3188C17.5817 17.7459 17.4456 17.0853 17.4421 16.3369V15.8965C17.4421 15.1338 17.5763 14.4606 17.8449 13.877C18.117 13.2933 18.4984 12.8475 18.9889 12.5396C19.4831 12.228 20.0488 12.0723 20.6862 12.0723C21.3236 12.0723 21.8875 12.2262 22.3781 12.5342C22.8722 12.8385 23.2536 13.279 23.5221 13.8555C23.7907 14.4284 23.9268 15.0962 23.9303 15.8589V16.2939ZM22.5714 15.8857C22.5714 15.0192 22.4067 14.355 22.0773 13.8931C21.7515 13.4312 21.2878 13.2002 20.6862 13.2002C20.099 13.2002 19.6388 13.4312 19.3058 13.8931C18.9764 14.3514 18.8081 15.0013 18.8009 15.8428V16.2939C18.8009 17.1533 18.9674 17.8175 19.3004 18.2866C19.637 18.7557 20.1025 18.9902 20.6969 18.9902C21.2985 18.9902 21.7604 18.7611 22.0827 18.3027C22.4085 17.8444 22.5714 17.1748 22.5714 16.2939V15.8857ZM30.7349 12.1797H32.0938V20H30.7349V14.4302L27.3027 20H25.9438V12.1797H27.3027V17.7549L30.7349 12.1797ZM30.7778 10.187C30.7778 10.6382 30.6203 11.0034 30.3052 11.2827C29.9901 11.562 29.5693 11.7017 29.043 11.7017C28.5166 11.7017 28.0959 11.562 27.7808 11.2827C27.4657 11.0034 27.3081 10.6382 27.3081 10.187H28.2856C28.2856 10.4233 28.3519 10.6077 28.4844 10.7402C28.6204 10.8691 28.8066 10.9336 29.043 10.9336C29.2793 10.9336 29.4637 10.8691 29.5962 10.7402C29.7287 10.6077 29.7949 10.4233 29.7949 10.187H30.7778ZM40.0316 13.2754H37.5931V20H36.245V13.2754H33.828V12.1797H40.0316V13.2754ZM46.5138 12.1797H47.8727V20H46.5138V14.4302L43.0817 20H41.7228V12.1797H43.0817V17.7549L46.5138 12.1797Z" fill="black"/>
</svg>
